<?xml version="1.0" standalone="no"?><!DOCTYPE svg PUBLIC "-//W3C//DTD SVG 1.1//EN" "http://www.w3.org/Graphics/SVG/1.1/DTD/svg11.dtd"><svg t="1683692821783" class="icon" viewBox="0 0 1024 1024" version="1.1" xmlns="http://www.w3.org/2000/svg" p-id="4487" width="16" height="16" xmlns:xlink="http://www.w3.org/1999/xlink"><path d="M810.666667 469.333333h-72.533334c0 31.786667-6.613333 61.226667-18.56 87.466667l52.48 52.48C796.373333 567.68 810.666667 520.106667 810.666667 469.333333z m-171.306667 7.04c0-2.346667 0.64-4.693333 0.64-7.04V213.333333c0-70.826667-57.386667-128-128-128s-128 57.173333-128 128v7.893334l255.36 255.146666zM182.4 128L128 182.4l256.426667 256.426667v30.72c0 70.613333 56.96 128 127.573333 128 9.6 0 18.773333-1.28 27.733333-3.2l70.826667 70.826666c-30.506667 14.08-64 21.973333-98.56 21.973334-117.76 0-226.133333-89.6-226.133333-217.6H213.333333c0 145.706667 116.053333 266.026667 256 286.72V896h85.333334v-139.946667c38.613333-5.76 75.306667-19.2 108.373333-38.613333L841.6 896 896 841.813333 182.4 128z" fill="#dbdbdb" p-id="4488"></path></svg>