<?xml version="1.0" standalone="no"?><!DOCTYPE svg PUBLIC "-//W3C//DTD SVG 1.1//EN" "http://www.w3.org/Graphics/SVG/1.1/DTD/svg11.dtd"><svg t="1683693182183" class="icon" viewBox="0 0 1024 1024" version="1.1" xmlns="http://www.w3.org/2000/svg" p-id="6598" xmlns:xlink="http://www.w3.org/1999/xlink" width="16" height="16"><path d="M518.568091 166.067246 231.87351 381.098671 231.87351 643.904169 518.568091 858.944803Z" p-id="6599" fill="#dbdbdb"></path><path d="M654.891919 704.501292 770.425236 588.959789 885.928876 704.501292 960.552457 629.817336 845.058027 514.322905 960.59339 398.779356 885.969808 324.217173 770.438539 439.702394 654.871453 324.135308 580.308247 398.779356 695.799608 514.309602 580.205916 629.857245Z" p-id="6600" fill="#dbdbdb"></path><path d="M87.465562 637.779681l89.140203 0L176.605765 379.750977l-89.140203 0c-13.45443 0-24.337291 10.902304-24.337291 24.337291l0 0.039909 0 209.274304 0 0.039909C63.128271 626.877377 74.010109 637.779681 87.465562 637.779681z" p-id="6601" fill="#dbdbdb"></path></svg>