<?xml version="1.0" standalone="no"?><!DOCTYPE svg PUBLIC "-//W3C//DTD SVG 1.1//EN" "http://www.w3.org/Graphics/SVG/1.1/DTD/svg11.dtd"><svg t="1683693190117" class="icon" viewBox="0 0 1024 1024" version="1.1" xmlns="http://www.w3.org/2000/svg" p-id="6947" xmlns:xlink="http://www.w3.org/1999/xlink" width="16" height="16"><path d="M734.118332 271.7758l-46.483684 46.52257c43.48028 50.070372 69.959352 115.233488 69.959352 186.752358 0 78.772065-31.899524 150.056598-83.529415 201.648626l46.482661 46.483684c63.563688-63.447031 102.833063-151.207817 102.833063-248.131287C823.381331 415.397848 789.493523 333.817832 734.118332 271.7758z" p-id="6948" fill="#dbdbdb"></path><path d="M830.049195 175.883823l-49.329499 49.290613c67.229171 74.0536 108.565625 172.011632 108.565625 279.874245 0 115.115807-46.678112 219.333404-122.096802 294.789956l49.252751 49.281403c88.1302-88.043219 142.569066-209.691813 142.569066-344.07136C959.009312 377.922329 909.834332 262.572184 830.049195 175.883823z" p-id="6949" fill="#dbdbdb"></path><path d="M646.729006 359.243921l-44.534286 44.474934c21.877263 27.979238 35.018561 63.076594 35.018561 101.33085 0 45.508473-18.444071 86.706781-48.237631 116.519784l44.182268 44.240597c41.102117-41.179888 66.566068-97.977475 66.566068-160.761404C699.723987 449.539436 679.75826 398.707724 646.729006 359.243921z" p-id="6950" fill="#dbdbdb"></path><path d="M224.830093 633.092939 498.018056 837.997726 498.018056 177.814802 224.830093 382.680702Z" p-id="6951" fill="#dbdbdb"></path><path d="M87.252715 381.432269c-12.830213 0-23.202445 10.372232-23.202445 23.183002l0 0L64.05027 604.060719c0 12.81077 10.373255 23.183002 23.202445 23.183002l84.923158 0c0.001023 0 0.010233 0.001023 0.010233 0.001023l0-0.001023L172.186106 381.432269l0 0-0.005117 0L87.252715 381.432269z" p-id="6952" fill="#dbdbdb"></path></svg>